<svg xmlns="http://www.w3.org/2000/svg" width="1080" height="392" viewBox="0 0 1080 392">
<rect width="100%" height="100%" fill="#f8fafc"/>
<text x="36" y="44" font-family="Inter, ui-sans-serif, system-ui, sans-serif" font-size="24" font-weight="700" fill="#0f172a">Campaign 10 DLPack consumers</text>
<text x="36" y="70" font-family="Inter, ui-sans-serif, system-ui, sans-serif" font-size="13" fill="#475569">Measured framework consumer costs for DeviceCommutationMatrix exports.</text>
<text x="36" y="108" font-family="Inter, ui-sans-serif, system-ui, sans-serif" font-size="12" font-weight="700" fill="#0f172a">NVIDIA RTX PRO 6000 Blackwell Server Edition / PyTorch DLPack</text>
<rect x="390" y="94" width="560" height="14" rx="3" fill="#e2e8f0"/>
<rect x="390" y="94" width="144.77" height="14" rx="3" fill="#2563eb"/>
<text x="964" y="105" font-family="Inter, ui-sans-serif, system-ui, sans-serif" font-size="11" fill="#334155">1.07e-06 s</text>
<text x="36" y="156" font-family="Inter, ui-sans-serif, system-ui, sans-serif" font-size="12" font-weight="700" fill="#0f172a">NVIDIA A100-SXM4-80GB / PyTorch DLPack</text>
<rect x="390" y="142" width="560" height="14" rx="3" fill="#e2e8f0"/>
<rect x="390" y="142" width="162.63" height="14" rx="3" fill="#2563eb"/>
<text x="964" y="153" font-family="Inter, ui-sans-serif, system-ui, sans-serif" font-size="11" fill="#334155">1.202e-06 s</text>
<text x="36" y="204" font-family="Inter, ui-sans-serif, system-ui, sans-serif" font-size="12" font-weight="700" fill="#0f172a">NVIDIA RTX PRO 6000 Blackwell Server Edition / CuPy DLPack</text>
<rect x="390" y="190" width="560" height="14" rx="3" fill="#e2e8f0"/>
<rect x="390" y="190" width="303.07" height="14" rx="3" fill="#2563eb"/>
<text x="964" y="201" font-family="Inter, ui-sans-serif, system-ui, sans-serif" font-size="11" fill="#334155">2.24e-06 s</text>
<text x="36" y="252" font-family="Inter, ui-sans-serif, system-ui, sans-serif" font-size="12" font-weight="700" fill="#0f172a">NVIDIA A100-SXM4-80GB / CuPy DLPack</text>
<rect x="390" y="238" width="560" height="14" rx="3" fill="#e2e8f0"/>
<rect x="390" y="238" width="403.60" height="14" rx="3" fill="#2563eb"/>
<text x="964" y="249" font-family="Inter, ui-sans-serif, system-ui, sans-serif" font-size="11" fill="#334155">2.983e-06 s</text>
<text x="36" y="300" font-family="Inter, ui-sans-serif, system-ui, sans-serif" font-size="12" font-weight="700" fill="#0f172a">NVIDIA RTX PRO 6000 Blackwell Server Edition / CuPy CUDA Array Interface</text>
<rect x="390" y="286" width="560" height="14" rx="3" fill="#e2e8f0"/>
<rect x="390" y="286" width="409.95" height="14" rx="3" fill="#2563eb"/>
<text x="964" y="297" font-family="Inter, ui-sans-serif, system-ui, sans-serif" font-size="11" fill="#334155">3.03e-06 s</text>
<text x="36" y="348" font-family="Inter, ui-sans-serif, system-ui, sans-serif" font-size="12" font-weight="700" fill="#0f172a">NVIDIA A100-SXM4-80GB / CuPy CUDA Array Interface</text>
<rect x="390" y="334" width="560" height="14" rx="3" fill="#e2e8f0"/>
<rect x="390" y="334" width="560.00" height="14" rx="3" fill="#2563eb"/>
<text x="964" y="345" font-family="Inter, ui-sans-serif, system-ui, sans-serif" font-size="11" fill="#334155">4.139e-06 s</text>
</svg>
